<svg width="963" height="343" viewBox="0 0 963 343" xmlns="http://www.w3.org/2000/svg"><path d="M417.405 69.33c-2.457 8.755-5.12 18.97-7.987 30.648-2.12 8.61-10.713 45.315-11.05 46.782a2421.094 2421.094 0 0 0-6.993 31.908c-1.428 6.703-2.828 13.34-4.216 19.92a8068.053 8068.053 0 0 0-4.576 21.888 4346.159 4346.159 0 0 0-8.039 39.51 9329.508 9329.508 0 0 0-6.719 34.183c-1.12 4.473-1.622 6.441-3.193 8.438-1.577 1.99-5.21 4.372-9.193 4.606-1 .061-2.2.028-3.605-.084-1.405-.117-3.022-.424-4.856-.914-4.88-1.31-10.49-1.322-15.163-2.644-4.69-1.316-10.307-1.444-14.226-3.513-3.93-2.063-8.193-3.318-10.684-6.38-2.485-3.044-.69-11.063-.977-15.653-.125-1.99.315-7.824.6-9.647.709-7.846 1.897-17.678 3.56-29.483 1.662-11.811 3.673-24.587 6.01-38.344a2710.057 2710.057 0 0 1 7.673-42.94c1.274-6.859 6.776-35.845 8.238-43.424 2.725-14.07 5.4-27.297 8.027-39.66 2.628-12.363 5.074-22.925 7.33-31.664 1.663-5.303 3.628-9.073 5.89-11.309 2.263-2.242 5.383-3.474 9.37-3.708 2.589-.156 5.76.212 9.519 1.082 3.748.88 20.327 2.754 23.721 2.554 4.325-.262 18.328 2.51 18.328 2.51 4.154 2.559 4.948 5.163 6.799 7.555 1.845 2.393.48 7.696.697 11.086.183 2.995-3.331 12.843-4.285 16.697zm156.372 157.883s2.096 17.302 1.552 28.038c-.342 6.605-3.798 21.146-5.917 22.842-2.125 1.713-6.061 3.517-11.816 5.438 0 0-75.725 20.419-78.232 20.858-2.506.446-14.699 4.17-20.946 2.362-21.281-6.132-30.081-28.196-31.905-31.442-1.818-3.246-2.877-7.124-3.16-11.65-.088-1.369-.07-2.806.034-4.294.11-1.488.405-3.223.886-5.23l-.26.609c1.088-8.544 8.718-52.593 11.277-65.172a2075.914 2075.914 0 0 1 8.348-39.107c1.326-5.98 2.67-11.891 4.03-17.752.266-1.144 11.52-47.082 14.74-58.815 3.218-11.728 6.252-22.312 9.106-31.758 3.485-9.08 8.87-13.836 16.135-14.27 4.84-.287 10.513.468 17.01 2.249 6.495 1.792 12.672 4.187 18.537 7.191 5.853 3.01 10.878 6.307 15.052 9.908 4.174 3.596 6.374 7.169 6.594 10.702a17.15 17.15 0 0 1-.318 4.605c-.313 1.499-.904 3.359-1.778 5.585l.284-.316c-3.381 10.855-6.982 22.853-10.82 36.001-3.845 13.149-7.642 26.934-11.394 41.356a4321.723 4321.723 0 0 0-11.237 44.015 3730.931 3730.931 0 0 0-10.647 43.683c7.596-1.634 15.041-3.258 22.347-4.875 7.29-1.612 21.166-5.726 30.053-6.256 5.042-.293 19.788-4.305 22.445 5.495zM716.573 79.15a846.988 846.988 0 0 0-5.09 16.237c-.497 1.64-6.575 21.486-8.642 27.722a326.106 326.106 0 0 1 27.67-3.283l2.23-.122c6.175-.347 11.126.26 14.865 1.8 3.733 1.545 7.411 2.947 10.077 7.66 0 0 4.448 9.879 5.775 13.792 1.328 3.919 2.455 11.805 2.564 13.555.497 8.002-7.23 10.58-12.23 12.423-3.078 1.132-43.26 8.03-49.52 9.421a537.495 537.495 0 0 0-22.392 5.475c-1.442 3.974-3.218 17.043-4.618 21.69-1.4 4.653-2.763 9.079-2.957 12.594 7.999-1.799 37.62-8.659 47.098-10.028 7.326-1.054 15.761-4.69 21.888-1.131 10.932 6.358 13.81 16.298 15.707 21.602 0 0 6.654 14.3 4.515 23.886-.982 4.382-2.43 6.954-4.648 8.83-2.23 1.871-6.387 3.566-12.483 5.067-11.2 2.892-56.994 14.592-59.975 15.354-5.212 1.341-16.89 3.322-16.89 3.322-5.871 1.684-14.792 3.378-18.834 3.604-4.684.26-8.817-.093-12.404-1.065-3.594-.971-36.511-18.616-37.505-29.361-.364-3.908-5.084-7.34-5.424-12.385a40.684 40.684 0 0 1 .37-8.775s21.494-99.194 33.96-156.747c.666-3.052 8.43-38.91 8.665-40.002.976-4.487 3.788-6.573 3.788-6.573 6.92-6.231 12.556-9.217 22.537-11.81 7.084-1.844 64.223-8.285 69.889-9.278 11.404-1.993 43.546-6.54 51.454.215 3.394 2.897 6.97 5.944 9.218 10.872l-.013-.292c2.424 4.343 4.158 7.947 5.206 10.8 1.042 2.865-1.194 6.359-.34 9.615 0 0 1.285 4.796 1.467 7.506.352 5.232-.679 8.99-3.09 11.264-2.418 2.28-7.109 3.996-14.084 5.16-10.998 1.584-19.125 2.903-30.748 4.807-11.623 1.91-23.973 4.101-37.056 6.58zm-407.06-15.576c4.467 6.163 6.166 12.264 4.913 17.652-2.396 10.295-5.508 23.917-9.02 39.356a47882.334 47882.334 0 0 0-15.606 68.95c-.464 2.048-.927 4.091-1.385 6.134-.635 2.796-3.563 15.756-4.387 19.406-6.241 27.602-11.962 52.826-15.8 69.425-2.351 10.159-6.39 25.083-10.566 37.404-3.918 11.545-21.549 6.61-33.436 4.04-16.927-3.644-27.172-11.63-25.364-23.317 1.905-12.309 1.882-15.473 2.254-20.204.4-5.15 6.544-34.54 9.398-47.443 5.149-23.255 18.38-68.836 15.566-86.862-7.214 12.417-17.087 36.266-26.658 59.39-10.668 25.763-20.748 50.11-28.139 61.768-.589.928-1.092 1.907-1.596 2.875-2.683 5.167-6.018 11.563-19.14 9.604-19.118-2.903-29.266-8.596-32.144-19.48-3.346-12.648-13.397-54.738-15.027-61.722-1.51-6.485-3.02-12.966-4.548-19.446-.051-.232-.109-.464-.16-.69 0 0-18.174 80.415-21.2 93.624-1.116 4.868-2.5 10.76-3.982 17.052-3.329 14.155-7.104 30.194-9.324 41.117-.932 4.606-3.037 7.798-6.258 9.48-1.442.758-3.072 1.199-4.902 1.306-3.37.204-16.475-4.425-18.638-5.28-3.724-1.466-22.224-14.607-25.696-17.16-6.596-4.844-9.073-16.848-8.615-23.186.6-8.376 1.825-17.505 3.427-28.643.703-4.907 2.007-1.743 2.877-7.034 1.287-7.85 2.74-16.068 4.325-24.506 2.637-14.03 5.646-28.665 8.86-43.21.55-2.485 2.643-11.726 3.135-13.854 8.22-35.508 17.448-69.12 25.4-90.416 10.256-27.437 13.248-27.352 49.43-17.595 5.257 1.414 9.936 4.256 14.461 6.99 1.585.967 3.163 1.923 4.748 2.8 1.379.77 2.58 1.795 3.632 2.694 1.173 1.002 2.38 2.026 3.233 2.18 23.51 3.99 25.261 16.265 25.032 29.57-.251 15.06 2.649 55.208 2.952 60.013 8.65-14.386 20.016-40.052 31.033-64.948 11.767-26.571 22.882-51.665 31.183-64.665 6.206-9.723 15.76-12.802 30.97-9.99 7.471 1.376 15.177 2.191 23.077 2.983 14.981 1.483 32.904 11.733 41.685 23.838zm621.12-45.469c33.188 24.625 40.455 52.275 23.633 89.946-4.943 11.068-7.709 18.9-15.406 22.11-6.737 2.806-16.402-.544-25.06-3.843-5.654-2.151-18.254-6.638-21.608-12.716-5.147-9.332-.792-19.46 2.911-29.263 1.689-4.476 5.293-9.175 7.214-13.573 1.864-6.733-3.47-10.19-9.77-8.089-5.397 3.922-12.064 8.907-15.575 14.027-11.133 16.25-7.668 35.525 3.272 51.776 5.49 8.15 11.546 16.043 18.038 23.566 1.584 1.837 8.443 9.343 10.289 11.248 4.04 4.173 7.627 8.374 10.743 12.592 24.67 33.425 19.627 67.791-23.82 94.623-18.79 11.607-36.397 24.053-60.678 17.88-26.358-6.693-46.283-22.092-58.12-44.762-8.519-16.306-2.982-34.176 7.33-48.953 5.963-8.542 15.226-7.21 22.126.527 6.981 7.836 12.25 17.42 20.268 23.97 5.677 4.637 16.228 10.66 22.202 8.043 4.966 1.255 3.825-16.598.74-22.462-4.106-7.781-8.804-15.27-13.695-22.67-5.544-8.38-11.337-16.637-16.787-25.073-7.703-11.915-12.658-24.591-15.045-37.385-1.217-6.493-1.299-28.149-.687-32.417 4.36-30.249 22.638-58.134 52.205-74.871 1.531-.874 7.4-3.854 8.78-4.487 21.84-10.005 43.116-13.007 61.708 6.57 1.362 1.44 3.167 2.482 4.792 3.686z" fill="#FFF" fill-rule="evenodd"/></svg>